<?xml version="1.0" standalone="no"?>
<!DOCTYPE svg PUBLIC "-//W3C//DTD SVG 20010904//EN"
 "http://www.w3.org/TR/2001/REC-SVG-20010904/DTD/svg10.dtd">
<svg version="1.0" xmlns="http://www.w3.org/2000/svg"
 width="1024.000000pt" height="1024.000000pt" viewBox="0 0 1024.000000 1024.000000"
 preserveAspectRatio="xMidYMid meet">
<metadata>
Created by potrace 1.16, written by Peter Selinger 2001-2019
</metadata>
<g transform="translate(0.000000,1024.000000) scale(0.100000,-0.100000)"
fill="#000000" stroke="none">
<path d="M4840 8564 c-590 -78 -1055 -295 -1413 -658 -141 -143 -205 -222
-316 -391 -225 -342 -427 -844 -545 -1350 -67 -286 -126 -657 -126 -786 0 -45
-3 -50 -71 -115 -218 -211 -390 -501 -435 -732 -30 -156 -13 -277 50 -366 101
-142 269 -183 433 -106 37 17 69 27 73 23 3 -4 14 -42 24 -83 93 -382 280
-736 546 -1037 119 -134 382 -350 521 -427 108 -61 112 -65 115 -137 12 -229
90 -473 185 -569 64 -66 107 -84 212 -88 79 -4 93 -1 142 23 102 49 168 157
218 352 l22 85 60 -7 c181 -20 246 -25 405 -31 183 -7 436 6 603 31 103 15
102 16 112 -52 18 -121 84 -260 154 -326 69 -65 108 -80 204 -79 64 1 86 6
128 28 88 48 145 129 201 289 28 77 64 263 72 365 3 36 5 66 6 68 0 1 5 2 12
2 24 0 205 115 293 186 110 89 257 234 346 340 93 110 179 225 179 238 0 6 16
33 35 60 19 27 60 102 91 165 30 64 69 143 85 176 39 81 129 374 129 422 l0
23 58 -30 c110 -58 264 -60 357 -5 47 27 109 98 130 149 28 65 38 170 25 262
-15 118 -42 200 -112 339 -75 151 -143 245 -285 397 -107 113 -113 122 -113
162 0 120 -62 525 -116 761 -88 380 -200 700 -368 1046 -180 372 -420 682
-706 911 -126 100 -184 136 -370 229 -242 120 -409 177 -650 218 -246 43 -414
50 -600 25z m453 -139 c228 -30 362 -64 572 -147 359 -142 645 -361 891 -683
204 -266 424 -733 545 -1155 161 -565 221 -967 222 -1505 2 -493 -36 -769
-159 -1147 -66 -204 -210 -471 -333 -618 -139 -167 -357 -367 -506 -467 -56
-37 -91 -57 -257 -147 -67 -36 -261 -114 -335 -136 -234 -66 -474 -99 -793
-107 -513 -13 -933 60 -1255 217 -552 269 -942 679 -1128 1185 -226 619 -263
1288 -117 2104 48 265 57 307 111 506 147 537 347 973 594 1295 246 320 615
576 1023 709 304 100 634 134 925 96z m2434 -3376 c129 -137 224 -304 270
-474 34 -129 38 -251 8 -310 -25 -50 -77 -85 -124 -84 -33 0 -34 1 -12 10 l25
10 -23 15 c-27 19 -84 134 -100 202 -8 29 -18 49 -26 49 -8 0 -12 -4 -9 -9 3
-4 -2 -11 -10 -14 -9 -3 -18 -22 -21 -42 -3 -21 -12 -50 -20 -67 -30 -66 -23
-85 50 -124 53 -29 5 -16 -57 15 -52 26 -50 16 -27 152 17 105 31 370 27 545
-1 97 -2 177 -1 177 1 0 24 -23 50 -51z m-5322 -237 c0 -227 4 -289 23 -411
12 -80 25 -147 28 -150 3 -3 -18 -16 -47 -28 -59 -26 -79 -25 -24 1 39 19 44
31 29 70 -5 13 -4 17 3 13 14 -9 5 32 -11 52 -8 11 -8 13 2 7 6 -4 12 -3 12 3
0 5 -4 13 -10 16 -5 3 -10 25 -10 48 0 31 -3 38 -10 27 -7 -11 -10 -8 -10 16
0 19 -6 34 -15 38 -10 3 -15 -1 -15 -11 0 -9 -6 -21 -14 -27 -7 -6 -28 -54
-46 -106 -17 -52 -45 -113 -61 -134 -15 -21 -26 -43 -23 -48 3 -4 -4 -8 -16
-8 -11 0 -40 20 -64 44 -52 52 -62 93 -52 220 11 153 69 308 170 460 56 84
135 176 152 176 5 0 9 -109 9 -268z"/>
<path d="M4040 7976 c-25 -14 -62 -42 -82 -63 -47 -49 -98 -146 -98 -187 0
-57 68 -137 105 -122 8 3 15 1 15 -4 0 -6 17 -9 38 -9 33 2 34 2 7 6 -16 3
-37 11 -46 19 -13 12 -18 12 -21 3 -3 -8 -9 -9 -17 -5 -11 7 -11 10 0 18 11 8
10 9 -3 4 -10 -3 -18 -1 -18 4 0 6 -6 10 -14 10 -8 0 -16 6 -19 14 -4 10 0 13
14 11 11 -2 22 2 26 10 4 11 22 15 69 15 51 0 64 3 64 16 0 8 27 42 60 74 33
32 60 66 60 74 0 9 5 16 10 16 6 0 10 9 10 20 0 11 -4 20 -10 20 -15 0 -12 27
5 53 14 22 14 22 -48 25 -49 1 -71 -3 -107 -22z"/>
<path d="M6466 7427 c-47 -47 -33 -103 32 -136 46 -24 102 18 102 78 0 45 -23
69 -73 78 -29 4 -40 1 -61 -20z"/>
<path d="M3728 6836 c-84 -30 -132 -59 -163 -100 -33 -43 -33 -89 0 -121 36
-37 62 -36 150 5 33 16 86 35 118 43 77 20 104 39 116 83 28 100 -74 142 -221
90z"/>
<path d="M6145 6826 c-36 -36 -41 -69 -16 -110 19 -29 34 -39 104 -62 45 -15
107 -40 137 -55 30 -16 63 -29 74 -29 27 0 86 63 86 93 0 13 -10 39 -22 57
-55 80 -160 130 -273 130 -56 0 -69 -4 -90 -24z"/>
<path d="M7002 6380 c-43 -26 -75 -99 -66 -148 4 -19 19 -47 33 -61 14 -15 20
-19 12 -9 -21 27 2 22 29 -7 16 -17 27 -22 34 -15 5 5 19 10 30 10 18 0 18 -1
-3 -19 -13 -12 -18 -22 -12 -26 14 -8 53 13 46 26 -4 5 1 9 10 9 19 0 45 23
45 40 0 6 5 8 10 5 6 -3 10 0 11 7 0 7 2 24 4 38 7 66 -68 170 -122 170 -16 0
-43 -9 -61 -20z"/>
<path d="M3790 6355 c-147 -33 -276 -126 -338 -243 -124 -235 -98 -487 68
-652 30 -30 78 -68 107 -83 66 -35 190 -67 262 -67 129 0 268 58 353 148 224
234 191 622 -67 817 -33 25 -83 54 -112 65 -71 27 -191 33 -273 15z m227 -156
c17 -6 48 -28 67 -50 32 -35 36 -45 36 -95 0 -98 -47 -160 -142 -185 -94 -26
-183 31 -213 136 -43 148 84 246 252 194z m142 -513 c59 -31 60 -90 1 -139
-43 -37 -84 -36 -121 4 -38 41 -38 81 0 120 33 33 75 38 120 15z"/>
<path d="M6150 6360 c-264 -33 -449 -249 -453 -528 -2 -141 41 -251 143 -365
85 -94 192 -143 336 -154 141 -10 288 47 387 151 193 202 195 534 4 743 -108
118 -259 173 -417 153z m209 -179 c119 -85 69 -290 -76 -317 -78 -15 -158 31
-194 111 -48 104 11 227 111 237 56 5 128 -9 159 -31z m104 -493 c69 -36 61
-124 -13 -163 -39 -20 -62 -19 -94 6 -40 31 -49 64 -31 103 27 56 89 80 138
54z"/>
<path d="M5253 5925 c-16 -11 -23 -28 -25 -62 -3 -41 -8 -50 -37 -70 -30 -20
-46 -23 -143 -23 -61 0 -119 5 -131 11 -38 20 -66 50 -72 79 -14 65 -90 84
-134 34 -19 -22 -22 -35 -18 -67 11 -79 103 -170 200 -199 23 -7 85 -12 137
-13 76 0 107 5 157 24 109 41 194 136 196 219 2 64 -77 104 -130 67z"/>
<path d="M2627 4705 c5 -164 62 -492 120 -690 40 -138 134 -358 210 -493 94
-167 284 -397 456 -550 218 -195 505 -356 777 -436 214 -63 282 -74 605 -102
344 -30 769 0 1015 72 265 78 536 198 658 293 26 20 67 49 92 65 135 88 302
243 421 391 101 126 184 253 227 345 62 137 123 302 117 318 -2 7 -1 11 4 8
12 -8 21 45 11 63 -6 11 -9 9 -15 -8 -3 -12 -12 -21 -18 -20 -41 5 -65 -3 -70
-22 -3 -12 -11 -19 -18 -17 -7 2 -30 -15 -52 -39 -22 -24 -46 -43 -54 -43 -9
0 -11 -5 -6 -12 4 -7 8 -23 8 -35 1 -20 -1 -21 -15 -8 -26 23 -49 18 -87 -20
-35 -35 -39 -58 -19 -107 6 -14 -1 -17 -49 -23 -31 -4 -59 -4 -62 -1 -4 4 -13
-4 -20 -16 -7 -13 -12 -17 -13 -10 0 18 -20 15 -39 -6 -9 -10 -37 -27 -63 -37
-27 -10 -48 -24 -48 -31 0 -7 -9 -15 -19 -19 -11 -3 -33 -20 -50 -37 -17 -18
-31 -27 -31 -20 0 18 -28 3 -35 -19 -4 -10 -15 -19 -26 -19 -11 0 -30 -5 -42
-12 -26 -14 -45 -18 -119 -25 -32 -2 -58 -9 -58 -14 0 -5 -9 -9 -20 -9 -11 0
-20 -4 -20 -10 0 -5 -18 -10 -40 -10 -22 0 -40 -4 -40 -10 0 -5 -18 -10 -40
-10 -22 0 -40 -4 -40 -10 0 -5 -9 -10 -20 -10 -25 0 -27 -20 -2 -21 12 0 10
-3 -8 -10 -18 -7 -36 -7 -63 2 -30 10 -43 10 -58 1 -10 -7 -26 -12 -34 -12 -8
0 -15 -6 -15 -14 0 -8 -11 -17 -25 -20 -14 -4 -25 -11 -25 -16 0 -6 -24 -10
-54 -10 -97 0 -176 -12 -176 -26 0 -10 -16 -14 -60 -14 -48 0 -60 3 -60 16 0
13 -15 15 -102 13 -57 -1 -122 -8 -146 -15 -72 -23 -192 -15 -192 12 0 11 -22
14 -104 14 -74 0 -106 4 -110 13 -5 10 -7 10 -12 0 -4 -9 -28 -13 -69 -13 -40
0 -65 -4 -67 -12 -3 -7 -25 -12 -58 -12 -33 0 -55 5 -58 12 -4 14 -42 17 -42
3 0 -5 -15 -11 -32 -15 -27 -5 -30 -9 -18 -17 12 -8 10 -9 -7 -4 -16 4 -25 0
-33 -15 -11 -20 -10 -21 12 -15 18 5 20 4 8 -4 -8 -6 -25 -11 -38 -11 -13 0
-33 -5 -45 -12 -12 -6 -36 -11 -53 -10 -31 1 -55 -16 -67 -48 -4 -12 -6 -12
-6 2 -1 10 -10 22 -21 28 -27 14 -25 27 3 34 13 3 54 20 90 37 65 30 67 32 67
69 0 22 -8 47 -20 62 -10 14 -17 27 -15 30 3 3 -28 5 -69 5 -41 0 -74 -3 -73
-6 3 -9 -41 -51 -45 -43 -9 21 -89 60 -135 65 -28 3 -74 17 -102 31 -28 14
-60 26 -71 26 -12 0 -34 7 -49 15 -16 8 -31 11 -35 8 -3 -4 -6 4 -6 16 0 18
-5 22 -23 19 -13 -1 -32 5 -41 15 -18 18 -76 24 -76 8 0 -5 -6 -11 -14 -14 -9
-4 -5 11 12 40 61 110 7 346 -106 466 -43 46 -114 77 -174 77 -69 -1 -124 -26
-171 -81 -48 -56 -53 -62 -60 -79 -5 -15 -11 29 -8 63 1 9 -3 17 -8 17 -6 0
-11 11 -11 25 0 14 -4 25 -10 25 -5 0 -10 9 -10 20 0 11 -4 20 -10 20 -5 0
-10 9 -10 20 0 11 -6 20 -14 20 -14 0 -26 42 -26 91 0 16 -4 29 -10 29 -5 0
-10 9 -10 20 0 13 -7 20 -20 20 -17 0 -20 7 -20 40 0 22 -4 40 -10 40 -5 0
-10 18 -10 40 0 38 -2 40 -31 40 -26 0 -30 3 -28 23 5 37 -20 97 -40 97 -10 0
-26 9 -36 20 -18 20 -17 20 16 20 l34 1 -27 24 c-16 13 -28 31 -28 40 0 8 -4
15 -10 15 -5 0 -10 14 -10 30 0 26 -3 30 -29 30 -28 0 -47 22 -36 40 8 13 -25
21 -61 14 -19 -3 -35 -11 -36 -18 -1 -6 -5 16 -8 49 -4 34 -6 0 -3 -80z"/>
<path d="M3323 4582 c-7 -4 -19 -24 -27 -44 -15 -36 -15 -38 10 -67 32 -38 65
-40 93 -5 28 36 28 88 -1 108 -24 17 -56 20 -75 8z"/>
<path d="M6439 4073 c-15 -2 -51 -18 -80 -36 -77 -46 -113 -118 -117 -239 -5
-116 16 -163 96 -216 49 -33 62 -37 116 -37 69 1 106 17 168 73 57 51 88 121
87 197 0 108 -51 194 -140 239 -51 25 -72 28 -130 19z"/>
</g>
</svg>
